<svg width="527" height="602" viewBox="0 0 527 602" fill="none" xmlns="http://www.w3.org/2000/svg">
<g opacity="0.35">
<path d="M263.813 540.706C260.335 540.752 256.948 541.826 254.079 543.793C251.209 545.759 248.986 548.53 247.687 551.756C246.388 554.983 246.073 558.522 246.78 561.928C247.487 565.334 249.186 568.454 251.662 570.897C254.138 573.34 257.281 574.996 260.696 575.657C264.111 576.319 267.646 575.955 270.855 574.613C274.064 573.271 276.804 571.009 278.731 568.114C280.659 565.218 281.687 561.817 281.686 558.339C281.648 553.632 279.745 549.133 276.394 545.828C273.044 542.522 268.519 540.68 263.813 540.706ZM263.809 574.962C260.531 574.917 257.34 573.904 254.636 572.051C251.933 570.198 249.837 567.586 248.614 564.545C247.39 561.504 247.093 558.169 247.76 554.96C248.426 551.751 250.027 548.81 252.361 546.508C254.694 544.205 257.656 542.645 260.874 542.021C264.092 541.398 267.423 541.74 270.447 543.004C273.471 544.269 276.054 546.399 277.871 549.128C279.688 551.856 280.657 555.061 280.658 558.339C280.622 562.776 278.829 567.017 275.67 570.133C272.511 573.25 268.246 574.986 263.809 574.962Z" fill="url(#paint0_radial_19_11131)"/>
<path d="M310.538 543.604C311.754 543.588 312.939 543.212 313.943 542.524C314.946 541.836 315.724 540.866 316.179 539.737C316.633 538.608 316.743 537.37 316.496 536.179C316.248 534.987 315.654 533.896 314.788 533.041C313.922 532.186 312.823 531.606 311.628 531.375C310.433 531.143 309.197 531.27 308.074 531.739C306.951 532.208 305.992 532.999 305.317 534.011C304.643 535.024 304.282 536.214 304.282 537.431C304.286 538.247 304.452 539.054 304.769 539.807C305.086 540.559 305.548 541.241 306.129 541.815C306.71 542.388 307.399 542.842 308.155 543.149C308.912 543.456 309.721 543.611 310.538 543.604Z" fill="url(#paint1_radial_19_11131)"/>
<path d="M439.03 574.573C438.099 574.559 437.178 574.756 436.334 575.149C435.491 575.542 434.747 576.121 434.159 576.843C433.571 577.564 433.155 578.409 432.94 579.315C432.726 580.22 432.719 581.163 432.92 582.071L338.97 582.069L319.879 559.61H355.422C355.724 560.533 356.346 561.317 357.174 561.823C358.003 562.329 358.984 562.523 359.943 562.37C360.901 562.217 361.774 561.727 362.404 560.989C363.034 560.25 363.38 559.311 363.38 558.341C363.38 557.37 363.034 556.431 362.404 555.693C361.774 554.954 360.901 554.464 359.943 554.311C358.984 554.158 358.003 554.352 357.174 554.858C356.346 555.364 355.724 556.149 355.422 557.071L290.1 557.069C289.682 550.381 286.73 544.103 281.845 539.514C276.961 534.926 270.511 532.372 263.809 532.372C257.107 532.372 250.658 534.927 245.774 539.516C240.889 544.105 237.938 550.383 237.52 557.071H209.358L176.058 524.22H117.53C117.218 522.829 116.441 521.586 115.328 520.695C114.215 519.805 112.833 519.319 111.407 519.319C109.982 519.319 108.599 519.805 107.486 520.695C106.373 521.586 105.597 522.829 105.285 524.22H78.2866L101.862 500.958L174.418 500.96C174.721 501.886 175.344 502.675 176.175 503.183C177.007 503.691 177.992 503.887 178.955 503.734C179.917 503.58 180.793 503.089 181.426 502.348C182.059 501.607 182.406 500.664 182.406 499.689C182.406 498.715 182.059 497.772 181.426 497.031C180.793 496.29 179.917 495.798 178.955 495.645C177.992 495.492 177.007 495.687 176.175 496.196C175.344 496.704 174.721 497.492 174.418 498.419H100.797L74.646 524.22H52.6899C52.4456 511.176 48.3818 498.491 41.0015 487.733L41.0376 487.77L65.9985 463.145L64.1978 461.37L96.6899 479.878L129.578 461.147V423.679L96.6919 404.946L63.8003 423.679L63.8032 461.145L64.1724 461.356L39.5269 485.667C33.2382 477.172 25.0785 470.24 15.6799 465.405C6.28133 460.571 -4.10387 457.965 -14.6714 457.79V445.452L6.62744 433.319V423.909L25.4634 405.327V436.694L17.6792 444.37L19.4985 446.173L28.0396 437.747V402.786L46.2534 384.817V339.438L61.6333 324.266C62.4292 324.656 63.3305 324.776 64.2007 324.608C65.0708 324.439 65.8624 323.992 66.4554 323.333C67.0485 322.675 67.4108 321.841 67.4873 320.958C67.5638 320.075 67.3505 319.191 66.8796 318.44C66.4087 317.689 65.7059 317.112 64.8777 316.797C64.0495 316.481 63.1409 316.444 62.2898 316.691C61.4386 316.938 60.6912 317.456 60.1608 318.166C59.6303 318.876 59.3457 319.74 59.3501 320.626C59.3548 321.269 59.5138 321.902 59.814 322.472L43.6782 338.391V383.765L6.62744 420.315V408.85L36.5894 379.29V305.755H34.0142V378.239L5.12744 406.735L-14.6714 395.456L-14.6733 369.231L-44.4536 339.852V311.798C-43.0538 311.523 -41.7931 310.77 -40.8867 309.669C-39.9804 308.567 -39.4849 307.185 -39.4849 305.759C-39.4849 304.332 -39.9804 302.95 -40.8867 301.848C-41.7931 300.747 -43.0538 299.994 -44.4536 299.72V268.819C-43.5135 268.513 -42.7134 267.881 -42.1974 267.037C-41.6813 266.194 -41.4831 265.194 -41.6383 264.217C-41.7935 263.241 -42.2919 262.352 -43.0439 261.71C-43.796 261.068 -44.7524 260.715 -45.7412 260.715C-46.73 260.715 -47.6865 261.068 -48.4386 261.71C-49.1907 262.352 -49.6891 263.241 -49.8442 264.217C-49.9994 265.194 -49.8011 266.194 -49.285 267.037C-48.769 267.881 -47.969 268.513 -47.0288 268.819V299.716C-48.4286 299.991 -49.6894 300.743 -50.5957 301.845C-51.502 302.947 -51.9976 304.329 -51.9976 305.756C-51.9976 307.182 -51.502 308.565 -50.5957 309.666C-49.6894 310.768 -48.4286 311.521 -47.0288 311.796V340.907L-17.2476 370.284V395.454L-38.5464 407.591V433.319L-24.4429 441.354V467.315C-36.4096 469.005 -47.5826 474.284 -56.4878 482.454L-67.4966 471.595H-113.793C-114.012 470.646 -114.561 469.806 -115.343 469.226C-116.124 468.646 -117.087 468.363 -118.058 468.429C-119.03 468.495 -119.945 468.905 -120.642 469.585C-121.338 470.265 -121.769 471.172 -121.857 472.141C-121.945 473.11 -121.685 474.079 -121.124 474.874C-120.562 475.669 -119.735 476.238 -118.792 476.478C-117.848 476.718 -116.85 476.614 -115.977 476.185C-115.103 475.756 -114.411 475.029 -114.025 474.136H-68.562L-58.3394 484.222C-63.7907 489.623 -68.1179 496.051 -71.0709 503.134C-74.024 510.218 -75.5444 517.816 -75.5444 525.49C-75.5444 533.164 -74.024 540.763 -71.0709 547.846C-68.1179 554.929 -63.7907 561.357 -58.3394 566.759L-62.9341 571.292C-68.9847 565.296 -73.7886 558.162 -77.0689 550.301C-80.3491 542.44 -82.0408 534.007 -82.0464 525.489H-84.6216C-84.6161 534.342 -82.8578 543.106 -79.4479 551.276C-76.038 559.445 -71.0441 566.859 -64.7544 573.089L-121.766 629.333C-122.562 628.943 -123.464 628.823 -124.334 628.991C-125.204 629.159 -125.996 629.606 -126.59 630.265C-127.183 630.923 -127.546 631.758 -127.623 632.641C-127.699 633.524 -127.486 634.408 -127.016 635.159C-126.545 635.91 -125.843 636.488 -125.014 636.804C-124.186 637.12 -123.278 637.158 -122.426 636.911C-121.575 636.664 -120.827 636.147 -120.296 635.437C-119.765 634.727 -119.479 633.864 -119.483 632.977C-119.487 632.334 -119.646 631.701 -119.947 631.132L-62.9038 574.856C-50.1382 586.69 -33.367 593.253 -15.9604 593.227L-15.9624 590.686C-32.6873 590.712 -48.8039 584.415 -61.0825 573.059L-56.4878 568.526C-45.3078 578.76 -30.6697 584.385 -15.5134 584.271C-0.357185 584.156 14.1946 578.312 25.2192 567.911L46.3403 588.747H82.6187L127.543 633.065C127.386 633.494 127.303 633.946 127.298 634.403C127.288 635.227 127.522 636.035 127.972 636.725C128.421 637.415 129.066 637.955 129.824 638.278C130.581 638.601 131.418 638.691 132.227 638.537C133.036 638.383 133.781 637.991 134.367 637.413C134.953 636.834 135.354 636.095 135.519 635.288C135.683 634.481 135.604 633.643 135.291 632.881C134.979 632.119 134.446 631.467 133.762 631.009C133.078 630.55 132.273 630.305 131.45 630.306C130.616 630.306 129.801 630.555 129.111 631.022L86.2603 588.747H96.7202L141.575 632.995C141.402 633.445 141.311 633.923 141.307 634.405C141.298 635.328 141.598 636.227 142.159 636.96C142.72 637.693 143.51 638.217 144.403 638.45C145.296 638.682 146.241 638.609 147.088 638.243C147.935 637.877 148.636 637.238 149.078 636.428C149.52 635.618 149.679 634.684 149.53 633.773C149.38 632.863 148.93 632.028 148.252 631.402C147.574 630.777 146.706 630.396 145.786 630.32C144.867 630.244 143.948 630.477 143.176 630.983L100.366 588.747L152.791 588.745C153.092 589.673 153.715 590.462 154.547 590.972C155.379 591.482 156.365 591.678 157.329 591.526C158.292 591.373 159.17 590.882 159.804 590.14C160.437 589.398 160.786 588.455 160.786 587.479C160.786 586.504 160.439 585.56 159.806 584.818C159.172 584.076 158.295 583.584 157.332 583.43C156.368 583.277 155.382 583.473 154.549 583.982C153.717 584.491 153.094 585.28 152.792 586.208H97.7915L97.6011 586.02L97.4116 586.208H83.686L83.4976 586.022L83.3091 586.208L47.4058 586.206L27.0396 566.114C37.6591 555.258 43.6099 540.678 43.6196 525.491C43.6196 493.505 17.5865 467.423 -14.6714 466.743V460.329C21.1734 461.011 50.1275 489.968 50.1255 525.489L50.1274 526.761H105.284C105.596 528.152 106.372 529.395 107.485 530.286C108.598 531.177 109.981 531.663 111.407 531.663C112.832 531.663 114.216 531.177 115.329 530.286C116.442 529.395 117.218 528.152 117.53 526.761H174.995L208.292 559.61H237.52C237.938 566.299 240.89 572.576 245.775 577.165C250.659 581.753 257.109 584.307 263.81 584.307C270.512 584.307 276.961 581.753 281.846 577.165C286.73 572.576 289.682 566.299 290.1 559.61H316.515L337.771 584.61L434.154 584.608C434.966 585.606 436.066 586.33 437.303 586.682C438.541 587.034 439.857 586.996 441.073 586.575C442.289 586.153 443.345 585.368 444.1 584.325C444.854 583.283 445.269 582.034 445.29 580.747C445.284 579.93 445.118 579.123 444.801 578.371C444.483 577.619 444.02 576.936 443.439 576.363C442.858 575.789 442.169 575.336 441.412 575.029C440.656 574.722 439.846 574.567 439.03 574.573ZM66.3784 425.145L96.6899 407.88L127.004 425.145V459.679L96.6919 476.942L66.3765 459.679L66.3784 425.145ZM-35.9722 409.054L-15.9604 397.655L4.05322 409.05V431.856L-15.9604 443.253L-35.9722 431.856V409.054ZM-21.8706 442.819L-17.2476 445.452L-17.2466 466.743C-18.8022 466.774 -20.3471 466.852 -21.8706 467.001V442.819ZM-17.2456 526.016L17.4028 560.2C8.36047 568.671 -3.57027 573.377 -15.9604 573.36C-42.7182 573.36 -64.4819 551.886 -64.4839 525.489C-64.4839 499.52 -43.4057 478.329 -17.2456 477.651V526.016ZM-14.6733 524.964L-14.6724 477.651C11.4907 478.331 32.561 499.522 32.561 525.489C32.5531 537.776 27.7705 549.579 19.2231 558.405L-14.6733 524.964ZM-15.9624 581.729C-47.394 581.731 -72.9683 556.499 -72.9683 525.489C-72.9683 494.905 -48.0854 469.962 -17.2466 469.28L-17.2456 476.636C-43.976 477.313 -65.5112 498.962 -65.5112 525.489C-65.5112 552.446 -43.2847 574.376 -15.9604 574.376C-3.29744 574.395 8.89563 569.581 18.1304 560.917L23.3999 566.116C12.7592 576.164 -1.32755 581.751 -15.9624 581.729ZM41.0493 525.489C41.0396 540.002 35.3597 553.937 25.2212 564.321L19.9517 559.122C28.6932 550.107 33.5853 538.046 33.5933 525.489C33.5933 498.96 12.0571 477.315 -14.6724 476.636L-14.6714 469.28C16.1704 469.962 41.0503 494.911 41.0493 525.489ZM263.809 581.77C259.189 581.708 254.69 580.281 250.879 577.668C247.067 575.056 244.113 571.375 242.388 567.088C240.663 562.801 240.244 558.1 241.184 553.576C242.124 549.052 244.38 544.906 247.669 541.661C250.958 538.415 255.134 536.215 259.67 535.336C264.207 534.458 268.902 534.94 273.165 536.722C277.428 538.505 281.069 541.508 283.63 545.354C286.191 549.2 287.558 553.718 287.558 558.339C287.508 564.593 284.98 570.572 280.528 574.964C276.076 579.357 270.063 581.805 263.809 581.77Z" fill="url(#paint2_radial_19_11131)"/>
<path d="M1.89302 341.933C0.675694 341.949 -0.509511 342.325 -1.5136 343.014C-2.51769 343.702 -3.29588 344.672 -3.75017 345.802C-4.20447 346.931 -4.31459 348.17 -4.06682 349.362C-3.81905 350.554 -3.22438 351.646 -2.35759 352.501C-1.49081 353.356 -0.39063 353.935 0.804638 354.166C1.99991 354.398 3.23682 354.27 4.35994 353.8C5.48305 353.331 6.44227 352.539 7.11677 351.526C7.79128 350.512 8.15102 349.322 8.15083 348.104C8.13928 346.456 7.47353 344.88 6.3 343.723C5.12647 342.565 3.54125 341.921 1.89302 341.933Z" fill="url(#paint3_radial_19_11131)"/>
<path d="M1.89321 360.868C0.675615 360.885 -0.509875 361.261 -1.51426 361.949C-2.51865 362.638 -3.29709 363.608 -3.75157 364.737C-4.20604 365.867 -4.31637 367.106 -4.06858 368.298C-3.8208 369.491 -3.22597 370.583 -2.35899 371.438C-1.492 372.293 -0.391567 372.873 0.803976 373.104C1.99952 373.335 3.23681 373.208 4.36013 372.738C5.48345 372.268 6.44269 371.476 7.11721 370.462C7.79173 369.448 8.15142 368.258 8.15102 367.04C8.13897 365.392 7.473 363.816 6.29958 362.659C5.12616 361.501 3.54128 360.857 1.89321 360.868Z" fill="url(#paint4_radial_19_11131)"/>
<path d="M143.491 438.878C144.708 438.861 145.893 438.485 146.898 437.796C147.902 437.108 148.68 436.138 149.134 435.008C149.588 433.878 149.698 432.64 149.45 431.448C149.202 430.256 148.608 429.164 147.741 428.309C146.874 427.454 145.773 426.875 144.578 426.644C143.382 426.413 142.145 426.54 141.022 427.01C139.899 427.481 138.94 428.272 138.266 429.286C137.592 430.3 137.232 431.49 137.233 432.708C137.238 433.524 137.405 434.331 137.722 435.083C138.04 435.835 138.502 436.517 139.083 437.09C139.664 437.663 140.353 438.115 141.109 438.422C141.865 438.729 142.675 438.884 143.491 438.878Z" fill="url(#paint5_radial_19_11131)"/>
<path d="M143.493 445.47C142.276 445.486 141.091 445.862 140.088 446.55C139.084 447.238 138.306 448.207 137.852 449.336C137.397 450.464 137.287 451.702 137.534 452.894C137.782 454.085 138.376 455.177 139.242 456.032C140.108 456.886 141.207 457.466 142.402 457.697C143.596 457.929 144.833 457.802 145.955 457.333C147.078 456.864 148.037 456.073 148.712 455.06C149.386 454.048 149.746 452.858 149.747 451.642C149.736 449.994 149.071 448.418 147.898 447.26C146.725 446.103 145.14 445.459 143.493 445.47Z" fill="url(#paint6_radial_19_11131)"/>
<path d="M196.473 598.147C193.755 598.184 191.108 599.023 188.866 600.56C186.623 602.096 184.885 604.262 183.87 606.784C182.855 609.305 182.608 612.071 183.161 614.733C183.713 617.394 185.041 619.833 186.976 621.743C188.911 623.652 191.367 624.947 194.036 625.464C196.705 625.981 199.467 625.697 201.975 624.648C204.483 623.599 206.625 621.833 208.132 619.57C209.638 617.307 210.442 614.649 210.442 611.931C210.413 608.252 208.926 604.735 206.307 602.151C203.689 599.567 200.152 598.127 196.473 598.147ZM196.473 623.177C194.256 623.147 192.097 622.463 190.267 621.21C188.438 619.956 187.02 618.19 186.191 616.133C185.363 614.076 185.161 611.819 185.612 609.648C186.063 607.477 187.145 605.487 188.723 603.929C190.302 602.371 192.305 601.315 194.483 600.893C196.66 600.471 198.913 600.702 200.959 601.557C203.005 602.412 204.753 603.853 205.982 605.699C207.211 607.545 207.867 609.713 207.868 611.931C207.844 614.932 206.631 617.801 204.495 619.909C202.359 622.017 199.474 623.192 196.473 623.177Z" fill="url(#paint7_radial_19_11131)"/>
<path d="M209.639 572.554C208.989 572.557 208.349 572.714 207.77 573.011L170.417 536.163H52.3521L52.3511 538.704H100.959L122.368 559.825H160.875V557.284H123.436L104.603 538.704H169.352L205.95 574.808C205.649 575.377 205.489 576.01 205.485 576.653C205.474 577.477 205.708 578.286 206.158 578.977C206.608 579.667 207.253 580.209 208.011 580.532C208.77 580.855 209.607 580.945 210.416 580.791C211.226 580.637 211.972 580.245 212.558 579.666C213.145 579.088 213.546 578.347 213.711 577.54C213.876 576.732 213.797 575.894 213.484 575.131C213.171 574.369 212.638 573.717 211.954 573.258C211.269 572.799 210.463 572.554 209.639 572.554Z" fill="url(#paint8_radial_19_11131)"/>
<path d="M336.95 537.704L330.677 533.954L324.411 530.2L324.25 537.434L324.09 544.665L330.522 541.186L336.95 537.704Z" fill="#FFC727"/>
<path d="M130.996 399.227L124.723 395.477L118.451 391.722L118.293 398.958L118.135 406.19L124.565 402.71L130.996 399.227Z" fill="url(#paint9_radial_19_11131)"/>
<path d="M40.3465 448.515L36.5385 454.702L32.7345 460.895L40.0685 461.048L47.4025 461.206L43.8715 454.862L40.3465 448.515Z" fill="url(#paint10_radial_19_11131)"/>
<path d="M32.4196 177.747L28.8896 171.401L25.3616 165.059L21.5556 171.243L17.7526 177.432L25.0866 177.585L32.4196 177.747Z" fill="#FFC727"/>
<path d="M122.082 457.167L122.338 457.022V427.805L96.6919 413.194L71.3022 427.659L71.0425 427.805V457.02L96.6919 471.626L122.082 457.167ZM72.0728 428.388L96.6899 414.368L121.309 428.388V456.432L96.6919 470.456L72.0728 456.43V428.388Z" fill="url(#paint11_radial_19_11131)"/>
<path d="M9.34648 595.954L9.34448 606.606L18.6905 611.931L28.0395 606.606V595.954L18.6915 590.632L9.34648 595.954Z" fill="url(#paint12_radial_19_11131)"/>
<path d="M91.6415 370.392V363.694L85.7585 360.341L79.8795 363.694V370.392L85.7585 373.743L91.6415 370.392Z" fill="url(#paint13_radial_19_11131)"/>
<path d="M289.222 505.956V496.786L281.172 492.198L273.122 496.784V505.956L281.172 510.538L289.222 505.956Z" fill="url(#paint14_radial_19_11131)"/>
<path d="M0.529785 411.061L-15.9604 401.671L-32.4487 411.061V429.847L-15.9624 439.235L0.529785 429.847V411.061ZM-0.501465 429.259L-15.9604 438.065L-31.4194 429.259V411.653L-15.9604 402.849L-0.501465 411.653V429.259Z" fill="url(#paint15_radial_19_11131)"/>
<path d="M26.3716 378.481V262.325C27.3113 262.019 28.1109 261.388 28.6268 260.545C29.1427 259.702 29.341 258.702 29.186 257.726C29.031 256.75 28.5329 255.861 27.7812 255.22C27.0296 254.578 26.0738 254.225 25.0854 254.225C24.0971 254.225 23.1412 254.578 22.3895 255.22C21.6379 255.861 21.1397 256.75 20.9847 257.726C20.8297 258.702 21.028 259.702 21.5439 260.545C22.0598 261.388 22.8596 262.019 23.7993 262.325V378.481H26.3716Z" fill="url(#paint16_radial_19_11131)"/>
<path d="M396.631 550.804L390.987 547.585L385.348 544.376V550.804V557.229L390.987 554.019L396.631 550.804Z" fill="#FFC727"/>
<path d="M73.0565 563.724L72.8975 570.96L79.3265 567.472L85.7585 563.991L79.4865 560.235L73.2155 556.487L73.0565 563.724Z" fill="url(#paint17_radial_19_11131)"/>
<path d="M55.5125 563.724L55.3535 570.958L61.7875 567.474L68.2165 563.991L61.9435 560.239L55.6735 556.487L55.5125 563.724Z" fill="url(#paint18_radial_19_11131)"/>
<path d="M526.179 549.534C525.869 548.142 525.093 546.897 523.979 546.004C522.866 545.112 521.482 544.626 520.055 544.626C518.628 544.626 517.244 545.112 516.131 546.004C515.018 546.897 514.242 548.142 513.931 549.534L442.142 549.53L449.792 541.983H487.225C487.527 542.906 488.149 543.69 488.978 544.196C489.806 544.702 490.788 544.895 491.747 544.742C492.706 544.589 493.578 544.099 494.208 543.36C494.838 542.621 495.184 541.682 495.184 540.711C495.183 539.74 494.837 538.801 494.207 538.063C493.576 537.324 492.703 536.835 491.744 536.682C490.785 536.53 489.804 536.724 488.975 537.23C488.147 537.736 487.526 538.521 487.224 539.444L448.724 539.442L438.496 549.53H412.233L377.333 529.657V571.952L412.245 552.071H513.931C514.243 553.462 515.02 554.706 516.133 555.597C517.246 556.488 518.629 556.973 520.055 556.973C521.48 556.973 522.864 556.488 523.977 555.597C525.09 554.706 525.866 553.462 526.178 552.071H526.312V549.534H526.179ZM379.91 567.55V534.05L409.315 550.802L379.91 567.55Z" fill="url(#paint19_radial_19_11131)"/>
<path d="M312.478 566.526L310.478 568.13L332.246 594.577L411.529 594.573V592.036H333.476L312.478 566.526Z" fill="url(#paint20_radial_19_11131)"/>
<path d="M11.2406 311.081L11.2386 300.434L1.89355 295.108L-7.45445 300.434L-7.45544 311.081L1.89355 316.405L11.2406 311.081Z" fill="url(#paint21_radial_19_11131)"/>
<path d="M299.222 579.632L289.875 584.958L289.878 595.606L299.224 600.931L308.572 595.604L308.569 584.958L299.222 579.632Z" fill="#FFC727"/>
<path d="M208.35 483.757V532.616L251.244 508.186L208.35 483.757ZM210.925 508.184L210.926 488.157L246.09 508.186L210.925 528.218V508.184Z" fill="url(#paint22_radial_19_11131)"/>
<path d="M25.0864 209.698L3.64697 246.329H46.5239L25.0864 209.698ZM25.0864 214.781L42.0649 243.79H8.10791L25.0864 214.781Z" fill="url(#paint23_radial_19_11131)"/>
<path d="M273.862 558.339C273.889 560.333 273.323 562.29 272.235 563.961C271.147 565.633 269.586 566.943 267.752 567.725C265.917 568.507 263.892 568.726 261.932 568.353C259.973 567.981 258.169 567.034 256.749 565.634C255.329 564.233 254.358 562.442 253.959 560.488C253.56 558.534 253.751 556.506 254.508 554.661C255.265 552.816 256.553 551.238 258.209 550.127C259.866 549.016 261.815 548.423 263.809 548.423C265.12 548.414 266.421 548.663 267.636 549.156C268.85 549.65 269.956 550.377 270.89 551.298C271.823 552.219 272.566 553.315 273.076 554.523C273.586 555.731 273.853 557.028 273.862 558.339Z" fill="#FFC727"/>
<path d="M1.58069 525.489C1.62769 528.968 0.639004 532.383 -1.25964 535.298C-3.15829 538.214 -5.88109 540.499 -9.08191 541.863C-12.2827 543.227 -15.8169 543.609 -19.2351 542.959C-22.6533 542.309 -25.801 540.658 -28.2781 538.215C-30.7551 535.771 -32.4496 532.646 -33.146 529.237C-33.8424 525.828 -33.5093 522.289 -32.1891 519.07C-30.8689 515.851 -28.6211 513.097 -25.7317 511.159C-22.8422 509.22 -19.4417 508.185 -15.9623 508.184C-11.3414 508.154 -6.89746 509.959 -3.60766 513.204C-0.317871 516.449 1.54836 520.868 1.58069 525.489Z" fill="#FFC727"/>
<path d="M111.38 450.78L96.6915 459.145L82.0035 450.78V434.044L96.6915 425.677L111.38 434.044V450.78Z" fill="#FFC727"/>
<path d="M230.767 508.186L224.148 511.958L217.526 515.727V508.184L217.528 500.645L224.148 504.417L230.767 508.186Z" fill="#FFC727"/>
<path d="M25.0865 227.292L28.3465 232.856L31.6025 238.427H25.0865L18.5675 238.425L21.8275 232.856L25.0865 227.292Z" fill="#FFC727"/>
</g>
<defs>
<radialGradient id="paint0_radial_19_11131" cx="0" cy="0" r="1" gradientUnits="userSpaceOnUse" gradientTransform="translate(-14.0549 524.995) scale(538.466 538.466)">
<stop stop-color="#FFC727"/>
<stop offset="1" stop-color="#FFC727"/>
</radialGradient>
<radialGradient id="paint1_radial_19_11131" cx="0" cy="0" r="1" gradientUnits="userSpaceOnUse" gradientTransform="translate(13859.9 9289) scale(6646.84 6646.62)">
<stop stop-color="#FFC727"/>
<stop offset="1" stop-color="#FFC727"/>
</radialGradient>
<radialGradient id="paint2_radial_19_11131" cx="0" cy="0" r="1" gradientUnits="userSpaceOnUse" gradientTransform="translate(629096 268398) scale(308510 203489)">
<stop stop-color="#FFC727"/>
<stop offset="1" stop-color="#FFC727"/>
</radialGradient>
<radialGradient id="paint3_radial_19_11131" cx="0" cy="0" r="1" gradientUnits="userSpaceOnUse" gradientTransform="translate(13555.9 9102.2) scale(6647.96 6647.72)">
<stop stop-color="#FFC727"/>
<stop offset="1" stop-color="#FFC727"/>
</radialGradient>
<radialGradient id="paint4_radial_19_11131" cx="0" cy="0" r="1" gradientUnits="userSpaceOnUse" gradientTransform="translate(13558 9122.77) scale(6650.02 6649.76)">
<stop stop-color="#FFC727"/>
<stop offset="1" stop-color="#FFC727"/>
</radialGradient>
<radialGradient id="paint5_radial_19_11131" cx="0" cy="0" r="1" gradientUnits="userSpaceOnUse" gradientTransform="translate(13697.4 9186.88) scale(6648.04 6647.84)">
<stop stop-color="#FFC727"/>
<stop offset="1" stop-color="#FFC727"/>
</radialGradient>
<radialGradient id="paint6_radial_19_11131" cx="0" cy="0" r="1" gradientUnits="userSpaceOnUse" gradientTransform="translate(13690.9 9201.75) scale(6645.89 6645.66)">
<stop stop-color="#FFC727"/>
<stop offset="1" stop-color="#FFC727"/>
</radialGradient>
<radialGradient id="paint7_radial_19_11131" cx="0" cy="0" r="1" gradientUnits="userSpaceOnUse" gradientTransform="translate(30460.8 20159) scale(14845.3 14844.8)">
<stop stop-color="#FFC727"/>
<stop offset="1" stop-color="#FFC727"/>
</radialGradient>
<radialGradient id="paint8_radial_19_11131" cx="0" cy="0" r="1" gradientUnits="userSpaceOnUse" gradientTransform="translate(177360 32253.9) scale(86934.7 24070.7)">
<stop stop-color="#FFC727"/>
<stop offset="1" stop-color="#FFC727"/>
</radialGradient>
<radialGradient id="paint9_radial_19_11131" cx="0" cy="0" r="1" gradientUnits="userSpaceOnUse" gradientTransform="translate(1970.45 9550.44) scale(6924.95 7790.25)">
<stop stop-color="#FFC727"/>
<stop offset="1" stop-color="#FFC727"/>
</radialGradient>
<radialGradient id="paint10_radial_19_11131" cx="0" cy="0" r="1" gradientUnits="userSpaceOnUse" gradientTransform="translate(2145.24 8482.55) scale(7898.61 6834.03)">
<stop stop-color="#FFC727"/>
<stop offset="1" stop-color="#FFC727"/>
</radialGradient>
<radialGradient id="paint11_radial_19_11131" cx="0" cy="0" r="1" gradientUnits="userSpaceOnUse" gradientTransform="translate(56407.3 41873.6) scale(27622.1 31464.7)">
<stop stop-color="#FFC727"/>
<stop offset="1" stop-color="#FFC727"/>
</radialGradient>
<radialGradient id="paint12_radial_19_11131" cx="0" cy="0" r="1" gradientUnits="userSpaceOnUse" gradientTransform="translate(2701.76 14073.8) scale(10066.9 11469.1)">
<stop stop-color="#FFC727"/>
<stop offset="1" stop-color="#FFC727"/>
</radialGradient>
<radialGradient id="paint13_radial_19_11131" cx="0" cy="0" r="1" gradientUnits="userSpaceOnUse" gradientTransform="translate(1773.79 8844.23) scale(6333.4 7216.48)">
<stop stop-color="#FFC727"/>
<stop offset="1" stop-color="#FFC727"/>
</radialGradient>
<radialGradient id="paint14_radial_19_11131" cx="0" cy="0" r="1" gradientUnits="userSpaceOnUse" gradientTransform="translate(2591.9 12102.2) scale(8669.39 9875.54)">
<stop stop-color="#FFC727"/>
<stop offset="1" stop-color="#FFC727"/>
</radialGradient>
<radialGradient id="paint15_radial_19_11131" cx="0" cy="0" r="1" gradientUnits="userSpaceOnUse" gradientTransform="translate(36186.5 27055.7) scale(17758.2 20227.7)">
<stop stop-color="#FFC727"/>
<stop offset="1" stop-color="#FFC727"/>
</radialGradient>
<radialGradient id="paint16_radial_19_11131" cx="0" cy="0" r="1" gradientUnits="userSpaceOnUse" gradientTransform="translate(9140.94 88420.4) scale(4471.57 66909.4)">
<stop stop-color="#FFC727"/>
<stop offset="1" stop-color="#FFC727"/>
</radialGradient>
<radialGradient id="paint17_radial_19_11131" cx="0" cy="0" r="1" gradientUnits="userSpaceOnUse" gradientTransform="translate(1925.09 9718.45) scale(6925.6 7793.64)">
<stop stop-color="#FFC727"/>
<stop offset="1" stop-color="#FFC727"/>
</radialGradient>
<radialGradient id="paint18_radial_19_11131" cx="0" cy="0" r="1" gradientUnits="userSpaceOnUse" gradientTransform="translate(1907.85 9717.21) scale(6926.65 7792.55)">
<stop stop-color="#FFC727"/>
<stop offset="1" stop-color="#FFC727"/>
</radialGradient>
<radialGradient id="paint19_radial_19_11131" cx="0" cy="0" r="1" gradientUnits="userSpaceOnUse" gradientTransform="translate(163996 30540.3) scale(80222.9 22775.1)">
<stop stop-color="#FFC727"/>
<stop offset="1" stop-color="#FFC727"/>
</radialGradient>
<radialGradient id="paint20_radial_19_11131" cx="0" cy="0" r="1" gradientUnits="userSpaceOnUse" gradientTransform="translate(14863.7 18323.9) scale(54414 15104.9)">
<stop stop-color="#FFC727"/>
<stop offset="1" stop-color="#FFC727"/>
</radialGradient>
<radialGradient id="paint21_radial_19_11131" cx="0" cy="0" r="1" gradientUnits="userSpaceOnUse" gradientTransform="translate(2685.11 13777) scale(10067.4 11468)">
<stop stop-color="#FFC727"/>
<stop offset="1" stop-color="#FFC727"/>
</radialGradient>
<radialGradient id="paint22_radial_19_11131" cx="0" cy="0" r="1" gradientUnits="userSpaceOnUse" gradientTransform="translate(47316.6 35152.2) scale(23097.5 26310)">
<stop stop-color="#FFC727"/>
<stop offset="1" stop-color="#FFC727"/>
</radialGradient>
<radialGradient id="paint23_radial_19_11131" cx="0" cy="0" r="1" gradientUnits="userSpaceOnUse" gradientTransform="translate(47093.7 26201.7) scale(23088.8 19725.6)">
<stop stop-color="#FFC727"/>
<stop offset="1" stop-color="#FFC727"/>
</radialGradient>
</defs>
</svg>
